<?xml version="1.0" encoding="UTF-8"?>
<svg version="1.1" xmlns="http://www.w3.org/2000/svg" width="1000" height="1000">
<path d="M0 0 C10.10544443 4.51718023 18.85027334 14.27277335 27.22265625 21.47265625 C30.10138783 23.94646735 32.98491395 26.41446375 35.875 28.875 C37.35613281 30.13957031 37.35613281 30.13957031 38.8671875 31.4296875 C42.46334913 34.43717052 46.22876382 37.21746844 50 40 C52.87982444 38.45874976 55.75944028 36.91711347 58.63867188 35.37475586 C61.14638513 34.03178236 63.65567368 32.69181256 66.16601562 31.35375977 C72.0272301 28.22584404 77.87825316 25.08517423 83.67617798 21.84106445 C85.47249241 20.83616512 87.27209867 19.83742841 89.07275391 18.84033203 C91.32964387 17.58729026 93.57957562 16.3216198 95.82177734 15.04248047 C96.83965332 14.48061035 97.8575293 13.91874023 98.90625 13.33984375 C99.79634766 12.83831787 100.68644531 12.33679199 101.60351562 11.82006836 C104 11 104 11 106.14697266 11.64868164 C108.07811555 13.05696568 109.32269198 14.36332577 110.7421875 16.28125 C111.24395508 16.94938721 111.74572266 17.61752441 112.26269531 18.3059082 C112.79475586 19.0299585 113.32681641 19.75400879 113.875 20.5 C115.03297517 22.04623159 116.19186043 23.59178195 117.3515625 25.13671875 C117.95000977 25.93770996 118.54845703 26.73870117 119.16503906 27.56396484 C122.67724162 32.22665206 126.29045809 36.81100679 129.89013672 41.40625 C134.67934105 47.5405748 139.3448676 53.76361916 144 60 C149.670422 58.3834645 155.34057367 56.7659851 161.01049805 55.14770508 C162.93132605 54.59960661 164.85222224 54.05174706 166.77319336 53.50415039 C168.63947647 52.97211097 170.50565722 52.43971237 172.37173462 51.9069519 C174.22333544 51.37844856 176.07520298 50.85087871 177.92733765 50.32424927 C182.31925105 49.07144739 186.70100265 47.79549571 191.06689453 46.45458984 C191.85044815 46.21596725 192.63400177 45.97734467 193.44129944 45.73149109 C194.90132605 45.28472966 196.35921105 44.83088487 197.81443787 44.36872864 C202.66665086 42.88888362 202.66665086 42.88888362 206 44 C207.21374512 45.84399414 207.21374512 45.84399414 208.40429688 48.28515625 C209.08014832 49.65293213 209.08014832 49.65293213 209.76965332 51.04833984 C210.24785522 52.0430127 210.72605713 53.03768555 211.21875 54.0625 C211.71789917 55.0829541 212.21704834 56.1034082 212.73132324 57.15478516 C213.78842931 59.32138572 214.84057725 61.49041125 215.88818359 63.66162109 C217.48258781 66.96393603 219.09339943 70.25782644 220.70703125 73.55078125 C221.73276356 75.65837131 222.75753358 77.76643003 223.78125 79.875 C224.2594519 80.853479 224.73765381 81.83195801 225.23034668 82.84008789 C227.9377698 88.47085022 230.15760441 94.02830847 232 100 C232.5525798 99.8449147 233.10515961 99.68982941 233.67448425 99.53004456 C236.20348516 98.95362052 238.62162299 98.71462706 241.20825195 98.51928711 C242.24645584 98.43927963 243.28465973 98.35927216 244.35432434 98.27684021 C246.02938301 98.15333946 246.02938301 98.15333946 247.73828125 98.02734375 C248.89241013 97.93997452 250.046539 97.85260529 251.23564148 97.7625885 C253.67739496 97.57857424 256.11927864 97.39628069 258.5612793 97.21557617 C262.28795776 96.9393193 266.01410493 96.65660225 269.74023438 96.37304688 C272.1145543 96.19492505 274.4889024 96.0171784 276.86328125 95.83984375 C277.97391434 95.75548569 279.08454742 95.67112762 280.22883606 95.58421326 C285.50187609 95.19738832 290.7127115 94.89876507 296 95 C296.18570053 95.74946396 296.37140106 96.49892792 296.56272888 97.27110291 C298.31012518 104.32070362 300.06088272 111.36945677 301.81545925 118.41727352 C302.71746701 122.04098604 303.61815363 125.66501647 304.51586914 129.28979492 C305.38163613 132.78536719 306.25081036 136.2800757 307.12239265 139.77420235 C307.4549514 141.10999685 307.78626381 142.44610226 308.1163311 143.78251457 C308.57746541 145.64870627 309.04337305 147.51371655 309.50952148 149.37866211 C309.77377426 150.44233505 310.03802704 151.506008 310.31028748 152.60191345 C310.77107527 154.93244568 310.77107527 154.93244568 312 156 C313.89153776 156.32487192 315.7933081 156.59036498 317.69726562 156.83203125 C319.52420959 157.06732544 319.52420959 157.06732544 321.38806152 157.30737305 C322.04279953 157.38966156 322.69753754 157.47195007 323.37211609 157.55673218 C325.4145018 157.81353756 327.45614969 158.07560304 329.49768066 158.33911133 C333.83118592 158.89748857 338.16552512 159.44920707 342.5 160 C347.52086589 160.63801441 352.54135809 161.27870597 357.56095886 161.92660522 C359.57752713 162.18541791 361.59470019 162.43909724 363.61193848 162.69262695 C365.43888245 162.92792114 365.43888245 162.92792114 367.30273438 163.16796875 C368.38115601 163.30485107 369.45957764 163.4417334 370.57067871 163.58276367 C373 164 373 164 374 165 C374.16032387 166.91416406 374.25183168 168.83412556 374.31640625 170.75390625 C374.35838135 171.98681396 374.40035645 173.21972168 374.44360352 174.48999023 C374.48368182 175.84748039 374.52330283 177.20498411 374.5625 178.5625 C374.58367889 179.24240997 374.60485779 179.92231995 374.62667847 180.62283325 C375.11429236 196.41455426 375.10250977 212.2024556 375 228 C375.87593307 228.12832214 376.75186615 228.25664429 377.65434265 228.38885498 C380.76518057 228.95710597 383.54704083 229.74567516 386.53051758 230.77832031 C387.58793655 231.14250061 388.64535553 231.50668091 389.7348175 231.88189697 C391.42262581 232.47402985 391.42262581 232.47402985 393.14453125 233.078125 C394.31006027 233.48657654 395.47558929 233.89502808 396.67643738 234.31585693 C399.13262104 235.18032755 401.58770373 236.04793184 404.04174805 236.91845703 C406.5618418 237.80836259 409.08296876 238.69083147 411.61010742 239.56005859 C415.25390154 240.81706214 418.88734223 242.10052879 422.51953125 243.390625 C423.65485794 243.77728333 424.79018463 244.16394165 425.95991516 244.56231689 C427.52240242 245.12750031 427.52240242 245.12750031 429.11645508 245.70410156 C430.03767654 246.02751526 430.95889801 246.35092896 431.90803528 246.68414307 C434 248 434 248 434.85649109 250.30316162 C435.01050864 253.19747972 434.73709065 255.60132869 434.1796875 258.4453125 C433.87442139 260.04221924 433.87442139 260.04221924 433.56298828 261.67138672 C433.22243408 263.38092529 433.22243408 263.38092529 432.875 265.125 C432.64925293 266.30465332 432.42350586 267.48430664 432.19091797 268.69970703 C431.22518811 273.74459441 430.23751703 278.78512832 429.25195312 283.82617188 C428.53541372 287.50770192 427.82995184 291.19123666 427.125 294.875 C426.7844458 296.58453857 426.7844458 296.58453857 426.43701172 298.32861328 C426.13174561 299.92552002 426.13174561 299.92552002 425.8203125 301.5546875 C425.54598389 302.95436768 425.54598389 302.95436768 425.26611328 304.38232422 C424.97908446 307.20573984 425.18985363 309.2851694 426 312 C428.00623567 313.80407504 428.00623567 313.80407504 430.65234375 315.20703125 C431.64492188 315.78622314 432.6375 316.36541504 433.66015625 316.9621582 C434.74167969 317.572771 435.82320312 318.18338379 436.9375 318.8125 C438.62498723 319.7946087 440.31244616 320.77676943 441.99832153 321.76164246 C443.17381907 322.44739895 444.3504986 323.13113292 445.52828979 323.8129425 C451.66329128 327.36540436 457.72251815 331.03778207 463.76321411 334.74789429 C465.4834823 335.80237507 467.20818662 336.84930395 468.93334961 337.89575195 C469.97628174 338.53472412 471.01921387 339.17369629 472.09375 339.83203125 C473.01865234 340.39639893 473.94355469 340.9607666 474.89648438 341.54223633 C477 343 477 343 478 345 C476.94274511 347.93499456 475.81275011 350.77076675 474.58984375 353.63671875 C474.22532608 354.50835159 473.86080841 355.37998444 473.48524475 356.2780304 C472.3099433 359.08430821 471.12406735 361.88596951 469.9375 364.6875 C469.16397496 366.5263822 468.3911801 368.36557173 467.61914062 370.20507812 C467.05218979 371.55522507 467.05218979 371.55522507 466.4737854 372.93264771 C465.35121467 375.60960291 464.23197815 378.28793656 463.11279297 380.96630859 C461.77508646 384.16704527 460.41460221 387.35613956 459.03173828 390.53759766 C458.45952315 391.88555643 457.88771646 393.23368869 457.31640625 394.58203125 C456.8169751 395.73550049 456.31754395 396.88896973 455.80297852 398.07739258 C454.74882083 400.8896891 454.74882083 400.8896891 455.68286133 403.21435547 C456.95844399 404.94366253 458.23212264 406.47556408 459.7578125 407.98828125 C460.29680176 408.52598145 460.83579102 409.06368164 461.39111328 409.61767578 C461.9632959 410.17696777 462.53547852 410.73625977 463.125 411.3125 C463.71394043 411.89499512 464.30288086 412.47749023 464.90966797 413.07763672 C468.4869111 416.59200055 472.15163488 419.95138654 475.9765625 423.1953125 C478.59017231 425.52636989 481.04157393 428.00813164 483.5 430.5 C487.35112962 434.39397947 491.26970958 438.11291314 495.44140625 441.66015625 C496.67503179 442.72064136 497.84968251 443.84968251 499 445 C498.64649075 448.51252808 496.89391333 450.94452706 494.9375 453.8125 C494.22335937 454.86179687 493.50921875 455.91109375 492.7734375 456.9921875 C491.85021907 458.32899656 490.92557149 459.66481906 490 461 C489.40606445 461.85754883 488.81212891 462.71509766 488.20019531 463.59863281 C486.1564582 466.54642781 484.10956384 469.49201444 482.0625 472.4375 C481.36777588 473.43998779 480.67305176 474.44247559 479.95727539 475.4753418 C476.98541171 479.75495165 474.00976484 484.02242137 470.89453125 488.19921875 C470.45939209 488.79226807 470.02425293 489.38531738 469.57592773 489.99633789 C468.46748009 491.49958128 467.3400329 492.98876532 466.2109375 494.4765625 C464.74855967 496.89018792 464.74855967 496.89018792 465.41796875 499.28515625 C467.73679555 503.26437756 470.30026044 507.03846042 472.9375 510.8125 C473.51653076 511.64982666 474.09556152 512.48715332 474.69213867 513.34985352 C475.88297276 515.07150405 477.07576801 516.79179972 478.27050781 518.51074219 C480.79572585 522.14528809 483.30490702 525.79078159 485.8125 529.4375 C486.25754883 530.08372314 486.70259766 530.72994629 487.16113281 531.39575195 C491.16872394 537.22342019 495.10005672 543.09979927 499 549 C497.64941886 552.01388073 496.14395225 554.1034677 493.8046875 556.42578125 C493.17530273 557.05387695 492.54591797 557.68197266 491.89746094 558.32910156 C491.23004883 558.98362305 490.56263672 559.63814453 489.875 560.3125 C489.19211914 560.98893555 488.50923828 561.66537109 487.80566406 562.36230469 C483.96798869 566.14141753 480.07108427 569.79221587 475.953125 573.265625 C473.35927262 575.56896591 470.9351168 578.03184787 468.5 580.5 C464.16600959 584.88234735 459.71975378 589.03757061 455 593 C455.60025541 596.42669273 456.47145708 599.45511995 457.81005859 602.66333008 C458.18069427 603.55808548 458.55132996 604.45284088 458.93319702 605.37471008 C459.33422638 606.33000107 459.73525574 607.28529205 460.1484375 608.26953125 C460.76822983 609.76198616 460.76822983 609.76198616 461.40054321 611.28459167 C462.72106738 614.46236848 464.04774444 617.63752952 465.375 620.8125 C466.69400917 623.97720603 468.01170669 627.14245063 469.32803345 630.30827332 C470.14651805 632.27575191 470.96671985 634.24251731 471.78890991 636.20845032 C473.96834914 641.43653659 476.04732152 646.68290401 478 652 C471.70998673 656.66728258 465.17121411 660.73122214 458.40478516 664.65136719 C451.17543667 668.85656141 444.05422601 673.23314547 436.9375 677.625 C436.34485352 677.99060028 435.75220703 678.35620056 435.14160156 678.73287964 C431.7596653 680.81965496 428.37920175 682.90879984 425 685 C425.59728521 692.28207636 426.7014632 699.38008703 428.06640625 706.5546875 C428.36393044 708.15064255 428.36393044 708.15064255 428.66746521 709.77883911 C429.29520569 713.14497743 429.92826046 716.51008061 430.5625 719.875 C431.20009199 723.26138068 431.83640762 726.64797181 432.46824646 730.03543091 C432.8598983 732.13509082 433.25484319 734.23413979 433.65345764 736.33248901 C433.83041672 737.28092682 434.00737579 738.22936462 434.18969727 739.20654297 C434.34656509 740.03797821 434.50343292 740.86941345 434.66505432 741.7260437 C435 744 435 744 435 748 C434.33458694 748.23359222 433.66917389 748.46718445 432.9835968 748.70785522 C426.70097937 750.91357437 420.41872862 753.12033434 414.13688374 755.32825279 C410.90761822 756.46322159 407.67821423 757.59779292 404.44848633 758.73144531 C400.73216446 760.0359147 397.01645813 761.34213197 393.30078125 762.6484375 C392.14540359 763.05371674 390.99002594 763.45899597 389.79963684 763.8765564 C388.71889389 764.25679962 387.63815094 764.63704285 386.5246582 765.02880859 C385.57645706 765.36190033 384.62825592 765.69499207 383.65132141 766.03817749 C381.08040459 766.97083155 378.53925337 767.98429865 376 769 C375.34 789.79 374.68 810.58 374 832 C345.3125 835.9375 345.3125 835.9375 336.2746582 837.17553711 C333.90834921 837.50101808 331.54205582 837.82661257 329.17578125 838.15234375 C327.33566467 838.40377136 327.33566467 838.40377136 325.45837402 838.66027832 C324.28141968 838.82257935 323.10446533 838.98488037 321.8918457 839.15209961 C320.36295464 839.3619474 320.36295464 839.3619474 318.80317688 839.57603455 C316.18097603 839.97262835 313.59516205 840.45582346 311 841 C310.82682755 841.72218719 310.65365509 842.44437439 310.47523499 843.18844604 C308.84449423 849.98727106 307.21141472 856.78553044 305.57569218 863.58315849 C304.73479253 867.07807833 303.89480552 870.57321231 303.05688477 874.06884766 C302.24853368 877.44097753 301.43781078 880.81252898 300.62542534 884.18368912 C300.16456695 886.09885816 299.7061804 888.01462146 299.24781799 889.9303894 C298.8274955 891.67196823 298.8274955 891.67196823 298.39868164 893.44873047 C298.15219376 894.47465302 297.90570587 895.50057556 297.65174866 896.55758667 C297 899 297 899 296 901 C287.47233341 901.10898875 279.07134019 900.83408986 270.57421875 900.125 C269.46061478 900.03621582 268.3470108 899.94743164 267.19966125 899.85595703 C263.69519938 899.57545835 260.19136382 899.2878631 256.6875 899 C254.28975159 898.80681878 251.89196537 898.61410637 249.49414062 898.421875 C243.66231299 897.95332572 237.83098033 897.47897252 232 897 C231.65775391 898.16776978 231.65775391 898.16776978 231.30859375 899.35913086 C229.57701452 904.17686241 227.33360935 908.6705589 225.0625 913.25390625 C224.58176025 914.23238022 224.10102051 915.21085419 223.60571289 916.21897888 C222.07405516 919.33526282 220.53736294 922.44902719 219 925.5625 C217.46332424 928.67987338 215.92775995 931.79778256 214.39428711 934.91673279 C213.44139603 936.85430394 212.48655883 938.79091952 211.52954102 940.72645569 C211.09569092 941.60764572 210.66184082 942.48883575 210.21484375 943.39672852 C209.83448975 944.16694839 209.45413574 944.93716827 209.06225586 945.73072815 C207.9436399 948.12040074 206.95734535 950.54178387 206 953 C199.09162855 952.39311373 192.81874973 950.61776374 186.203125 948.5859375 C183.92323112 947.90086181 181.64328155 947.21597142 179.36328125 946.53125 C175.79174949 945.45037224 172.2212495 944.36623713 168.65185547 943.27832031 C165.19229744 942.22646292 161.72924749 941.18681866 158.265625 940.1484375 C157.19580383 939.81830658 156.12598267 939.48817566 155.02374268 939.14804077 C154.02880798 938.85088165 153.03387329 938.55372253 152.00878906 938.24755859 C151.13579163 937.9818808 150.26279419 937.716203 149.36334229 937.44247437 C146.79548974 936.96171077 145.41308057 937.03011037 143 938 C141.22924688 939.94182588 139.68253545 941.83551631 138.125 943.9375 C137.14857511 945.2175529 136.17200549 946.4974954 135.1953125 947.77734375 C134.6787207 948.4616748 134.16212891 949.14600586 133.62988281 949.85107422 C130.20562164 954.36580562 126.70153673 958.81929488 123.21582031 963.28662109 C120.38849254 966.91473917 117.57598504 970.5515082 114.8046875 974.22265625 C114.30839844 974.87298828 113.81210937 975.52332031 113.30078125 976.19335938 C112.37587751 977.40587017 111.45869625 978.62432586 110.55078125 979.84960938 C107.59006061 983.70597121 107.59006061 983.70597121 105.27392578 984.86010742 C101.79014608 985.07443057 99.27013385 983.40871193 96.3125 981.765625 C95.6613472 981.41609268 95.0101944 981.06656036 94.33930969 980.70643616 C92.94373535 979.95495234 91.5512236 979.19775847 90.16152954 978.43545532 C87.99557599 977.24757372 85.82166397 976.07559775 83.64526367 974.90698242 C77.25547721 971.46568829 70.90309981 967.96912885 64.61328125 964.34765625 C63.70126953 963.82719727 62.78925781 963.30673828 61.84960938 962.77050781 C60.1991019 961.82200602 58.5577874 960.85726181 56.92773438 959.87402344 C52.87113237 957.43740496 52.87113237 957.43740496 48.30078125 957.4453125 C45.57436239 959.28761251 43.257836 961.28991462 40.875 963.5625 C36.38709556 967.77005287 31.75248581 971.7070129 26.96484375 975.57421875 C22.36258384 979.33970413 17.86524905 983.22564776 13.359375 987.10546875 C12.81087891 987.57259277 12.26238281 988.0397168 11.69726562 988.52099609 C10.49693376 989.56696998 9.32050857 990.64067883 8.16210938 991.73291016 C7.55689453 992.29155762 6.95167969 992.85020508 6.328125 993.42578125 C5.51456543 994.199823 5.51456543 994.199823 4.68457031 994.98950195 C3 996 3 996 0.93603516 995.76367188 C-1.78052213 994.69212191 -3.64388413 993.06936825 -5.875 991.1875 C-6.844375 990.37410156 -7.81375 989.56070313 -8.8125 988.72265625 C-9.8758453 987.81609472 -10.93831638 986.90850698 -12 986 C-12.82564453 985.29593018 -12.82564453 985.29593018 -13.66796875 984.57763672 C-16.59577685 982.07945263 -19.51684251 979.57358125 -22.43359375 977.0625 C-26.46022974 973.59882187 -30.50515865 970.1564655 -34.58178711 966.75170898 C-36.83864416 964.86230424 -39.04214504 962.9591529 -41.15625 960.91015625 C-43.05231918 958.99149282 -43.05231918 958.99149282 -46 957 C-51.87493955 958.22205985 -57.23537276 961.58740263 -62.5 964.375 C-63.9991394 965.16269775 -63.9991394 965.16269775 -65.52856445 965.96630859 C-75.37419243 971.1579623 -85.14418481 976.48801474 -94.89135742 981.86181641 C-100.71467863 985.00507489 -100.71467863 985.00507489 -102.9765625 984.96484375 C-106.03821078 983.50494582 -107.38086676 981.28826915 -109.375 978.5625 C-110.2593807 977.37162579 -111.14485999 976.1815669 -112.03125 974.9921875 C-112.50691406 974.34862305 -112.98257812 973.70505859 -113.47265625 973.04199219 C-116.21358232 969.37749321 -119.05265683 965.78939542 -121.875 962.1875 C-128.36128995 953.87404852 -134.70673984 945.46017025 -141 937 C-148.2619212 938.30509456 -155.24613483 940.14603133 -162.30078125 942.29296875 C-164.43282395 942.9294344 -166.56498902 943.56549028 -168.69726562 944.20117188 C-172.02108402 945.19730621 -175.34372901 946.19696947 -178.66430664 947.20385742 C-181.8943693 948.18116087 -185.12839099 949.14428587 -188.36328125 950.10546875 C-189.35604568 950.41058884 -190.34881012 950.71570892 -191.37165833 951.03007507 C-192.29999985 951.30398575 -193.22834137 951.57789642 -194.18481445 951.86010742 C-194.99626419 952.10500412 -195.80771393 952.34990082 -196.64375305 952.60221863 C-199.4385272 953.07403212 -201.3087033 952.88078898 -204 952 C-205.56520363 949.61523943 -206.72418729 947.48627027 -207.890625 944.9140625 C-208.23704544 944.18897995 -208.58346588 943.4638974 -208.94038391 942.71684265 C-210.06106927 940.36071704 -211.15555309 937.99341165 -212.25 935.625 C-213.00866229 934.01768258 -213.76899865 932.41115426 -214.53100586 930.80541992 C-216.37742649 926.90560284 -218.20437109 922.99704022 -220.02581787 919.08551025 C-221.79638929 915.29510521 -223.60172202 911.52132452 -225.40332031 907.74560547 C-226.94818849 904.50294409 -228.47582893 901.25243342 -230 898 C-240.74925709 897.73947043 -251.30226031 898.56530695 -262 899.5 C-265.29116634 899.7875589 -268.58284757 900.06773418 -271.875 900.34375 C-272.5983252 900.40937134 -273.32165039 900.47499268 -274.06689453 900.54260254 C-280.71059774 901.09848141 -287.33673332 901.06093272 -294 901 C-295.83084686 893.63855753 -297.65667473 886.27588578 -299.47612 878.91161728 C-300.32113698 875.49205678 -301.16787093 872.07294073 -302.01855469 868.65478516 C-302.99667706 864.72424217 -303.96728211 860.79187666 -304.9375 856.859375 C-305.24373291 855.63321472 -305.54996582 854.40705444 -305.86547852 853.14373779 C-306.28591431 851.43241669 -306.28591431 851.43241669 -306.71484375 849.68652344 C-306.96355225 848.68280701 -307.21226074 847.67909058 -307.46850586 846.6449585 C-308 844 -308 844 -308 840 C-308.63897217 839.96914307 -309.27794434 839.93828613 -309.9362793 839.90649414 C-322.31098447 839.135443 -334.54761919 837.1920917 -346.8125 835.4375 C-349.16205619 835.10444227 -351.51166517 834.77175676 -353.86132812 834.43945312 C-359.57483501 833.63059601 -365.28767123 832.8171335 -371 832 C-371.68868409 826.383077 -372.15574801 820.82984775 -372.31640625 815.16796875 C-372.33723267 814.45694 -372.35805908 813.74591125 -372.3795166 813.01333618 C-372.44464863 810.73815025 -372.50392641 808.46286345 -372.5625 806.1875 C-372.58367889 805.41352875 -372.60485779 804.6395575 -372.62667847 803.84213257 C-372.95357838 791.89319047 -373.133644 779.9537133 -373 768 C-374.24201172 767.75306396 -375.48402344 767.50612793 -376.76367188 767.25170898 C-382.60223906 765.95012981 -388.15614311 763.98755634 -393.78125 761.97265625 C-394.87594604 761.58307236 -395.97064209 761.19348846 -397.09851074 760.792099 C-399.3954877 759.97212959 -401.69141346 759.14921005 -403.98632812 758.32348633 C-407.51260687 757.05797565 -411.04509075 755.81095973 -414.578125 754.56445312 C-416.8129019 753.7641422 -419.04729137 752.96274842 -421.28125 752.16015625 C-422.34154419 751.78818619 -423.40183838 751.41621613 -424.4942627 751.03297424 C-425.95213196 750.5024369 -425.95213196 750.5024369 -427.43945312 749.96118164 C-428.72777039 749.50057091 -428.72777039 749.50057091 -430.04211426 749.03065491 C-432 748 -432 748 -433 745 C-432.70265198 742.39936829 -432.70265198 742.39936829 -432.10375977 739.2434082 C-431.88345596 738.06241043 -431.66315216 736.88141266 -431.43617249 735.66462708 C-431.19039963 734.38955795 -430.94462677 733.11448883 -430.69140625 731.80078125 C-430.44269735 730.48239813 -430.19465419 729.16388927 -429.94725037 727.84526062 C-429.29464461 724.37683728 -428.63300535 720.91019669 -427.96948242 717.44384766 C-427.29386151 713.90565297 -426.62678118 710.36585003 -425.95898438 706.82617188 C-424.64768626 699.88251503 -423.32683989 692.94070523 -422 686 C-423.58688127 684.87999756 -425.17501577 683.76177063 -426.76367188 682.64428711 C-428.09005676 681.7099308 -428.09005676 681.7099308 -429.4432373 680.75669861 C-432.70519654 678.51547408 -436.06233275 676.51814677 -439.5 674.5625 C-447.43970345 669.97147063 -455.25825905 665.19113188 -463.0625 660.375 C-463.65514648 660.00939972 -464.24779297 659.64379944 -464.85839844 659.26712036 C-468.2403347 657.18034504 -471.62079825 655.09120016 -475 653 C-474.38802618 647.71676527 -472.66383679 643.35595553 -470.578125 638.5234375 C-470.0653299 637.31368759 -470.0653299 637.31368759 -469.54217529 636.07949829 C-468.45088137 633.50868731 -467.35067975 630.94180449 -466.25 628.375 C-465.52543373 626.67343583 -464.80146974 624.97161506 -464.078125 623.26953125 C-463.72504272 622.43963684 -463.37196045 621.60974243 -463.00817871 620.75469971 C-462.30889792 619.11013983 -461.61040208 617.46524595 -460.91271973 615.82000732 C-459.41595925 612.29595129 -457.90985094 608.77952637 -456.33398438 605.29003906 C-455.86798828 604.2378418 -455.40199219 603.18564453 -454.921875 602.1015625 C-454.5206543 601.22064941 -454.11943359 600.33973633 -453.70605469 599.43212891 C-452.85919941 596.51498775 -453.07049541 594.87372084 -454 592 C-456.22877765 589.24805794 -456.22877765 589.24805794 -459.0625 586.625 C-459.56273682 586.14023193 -460.06297363 585.65546387 -460.57836914 585.15600586 C-463.89899488 581.96311696 -467.33503875 578.92804706 -470.83984375 575.94140625 C-474.21757494 572.90572379 -477.36997151 569.65043254 -480.56030273 566.42016602 C-484.03618424 562.9177215 -487.61757689 559.60398136 -491.375 556.40234375 C-493.35097064 554.69711909 -495.19292649 552.88236824 -497 551 C-495.41426819 546.2244724 -492.73978784 542.58544478 -489.8125 538.5625 C-484.13713298 530.65095565 -478.62871322 522.63552016 -473.1652832 514.57641602 C-472.26555786 513.25081665 -472.26555786 513.25081665 -471.34765625 511.8984375 C-470.78062988 511.05635742 -470.21360352 510.21427734 -469.62939453 509.34667969 C-468.15314667 507.22056425 -466.59145173 505.2007131 -464.99609375 503.1640625 C-462.81637101 500.27503754 -462.81637101 500.27503754 -462.859375 497.5390625 C-464.53810414 493.80216543 -466.82220008 490.66197896 -469.25 487.375 C-470.34509039 485.85904028 -471.43878952 484.34207478 -472.53125 482.82421875 C-473.10101563 482.0357959 -473.67078125 481.24737305 -474.2578125 480.43505859 C-478.79968241 474.08687887 -483.15099511 467.60418414 -487.53417969 461.14599609 C-488.886304 459.16645367 -490.25549934 457.20034283 -491.6328125 455.23828125 C-492.37273437 454.16964844 -493.11265625 453.10101563 -493.875 452 C-494.51179688 451.0925 -495.14859375 450.185 -495.8046875 449.25 C-496.39636719 448.13625 -496.39636719 448.13625 -497 447 C-495.90422771 443.71268312 -495.22195399 443.11996244 -492.625 441 C-488.55024498 437.55325382 -484.81487711 433.84725853 -481.06884766 430.04882812 C-477.87004447 426.82459374 -474.55623958 423.82568557 -471.1015625 420.8828125 C-467.47737997 417.6358683 -464.11022617 414.12747487 -460.7109375 410.6484375 C-457.91588381 407.91782308 -455.03099278 405.4621261 -452 403 C-453.39406547 399.49929356 -454.79053419 395.99955 -456.1875 392.5 C-456.62368652 391.40606934 -457.05987305 390.31213867 -457.50927734 389.18505859 C-460.16080459 382.55023318 -462.84278258 375.92909235 -465.55859375 369.3203125 C-466.15672943 367.86135786 -466.75479294 366.40237363 -467.3527832 364.94335938 C-468.23658634 362.78718212 -469.1221723 360.63183038 -470.01351929 358.47875977 C-470.84955954 356.45905496 -471.67924788 354.43684322 -472.5078125 352.4140625 C-472.98879395 351.2482666 -473.46977539 350.0824707 -473.96533203 348.88134766 C-475 346 -475 346 -475 343 C-473.3137207 341.67236328 -473.3137207 341.67236328 -470.92578125 340.3203125 C-470.04051758 339.80992432 -469.15525391 339.29953613 -468.24316406 338.77368164 C-467.27604492 338.2296167 -466.30892578 337.68555176 -465.3125 337.125 C-463.29180064 335.96166206 -461.27229921 334.79624122 -459.25390625 333.62890625 C-458.21637207 333.03094238 -457.17883789 332.43297852 -456.10986328 331.81689453 C-451.26760433 328.98787183 -446.50690236 326.03215195 -441.75 323.0625 C-436.7539191 319.94424805 -431.75321689 316.83967022 -426.70019531 313.81420898 C-425.37293427 313.01913185 -425.37293427 313.01913185 -424.01885986 312.20799255 C-423.01952423 311.61003624 -423.01952423 311.61003624 -422 311 C-422.21004417 309.8824659 -422.21004417 309.8824659 -422.42433167 308.74235535 C-423.74187657 301.7250671 -425.05222236 294.70649115 -426.35447788 287.68635082 C-427.02425382 284.07717091 -427.69681325 280.4685561 -428.37573242 276.86108398 C-429.03067735 273.38043795 -429.67831213 269.89850447 -430.32087517 266.41555214 C-430.5674583 265.08618897 -430.81668313 263.75731304 -431.06857491 262.42894554 C-431.42060082 260.57006528 -431.76241852 258.70926057 -432.10375977 256.84838867 C-432.3013942 255.78915695 -432.49902863 254.72992523 -432.70265198 253.63859558 C-433 251 -433 251 -432 248 C-429.72926331 246.87995911 -429.72926331 246.87995911 -426.68579102 245.82348633 C-425.55113907 245.42329788 -424.41648712 245.02310944 -423.24745178 244.61079407 C-422.01208176 244.18880234 -420.77671173 243.76681061 -419.50390625 243.33203125 C-418.23184491 242.88885362 -416.960115 242.44472362 -415.68870544 241.99967957 C-413.02202073 241.06888662 -410.35283978 240.14580439 -407.68139648 239.22875977 C-404.25335035 238.05192681 -400.82994696 236.86226452 -397.40808201 235.66759205 C-394.1498527 234.53058734 -390.8895031 233.39972504 -387.62890625 232.26953125 C-386.39556046 231.84146683 -385.16221466 231.4134024 -383.89149475 230.97236633 C-382.18478859 230.38626839 -382.18478859 230.38626839 -380.44360352 229.78833008 C-379.43846207 229.44208084 -378.43332062 229.0958316 -377.39772034 228.73908997 C-375 228 -375 228 -373 228 C-373.01160156 227.04609375 -373.02320313 226.0921875 -373.03515625 225.109375 C-373.11908031 214.33352602 -372.91244925 203.56837824 -372.62667847 192.79699707 C-372.58416972 191.19278216 -372.54291363 189.58853352 -372.50296021 187.98425293 C-372.4449369 185.68468064 -372.38147095 183.38532023 -372.31640625 181.0859375 C-372.29968872 180.40512115 -372.28297119 179.72430481 -372.26574707 179.02285767 C-372.1131923 173.97861097 -371.61722886 169.00759632 -371 164 C-363.08132795 162.95541503 -355.16247549 161.91221299 -347.24338722 160.87078857 C-343.56646455 160.38719891 -339.88960649 159.9031285 -336.21289062 159.41796875 C-332.6663602 158.95000541 -329.11966727 158.48329268 -325.5728569 158.01745605 C-324.21798177 157.83928192 -322.86316636 157.66065301 -321.50841141 157.48156738 C-319.61465181 157.23130861 -317.72066127 156.98279932 -315.82666016 156.734375 C-314.20783432 156.52119629 -314.20783432 156.52119629 -312.55630493 156.30371094 C-310 156 -310 156 -308 156 C-307.88834503 155.34529221 -307.77669006 154.69058441 -307.66165161 154.01603699 C-306.41920133 146.93758563 -304.87756614 139.97010277 -303.1796875 132.98828125 C-302.91616486 131.89404343 -302.65264221 130.7998056 -302.38113403 129.67240906 C-301.54862499 126.21840617 -300.7118874 122.76544434 -299.875 119.3125 C-299.30570832 116.95384391 -298.73669527 114.59512055 -298.16796875 112.23632812 C-296.78186383 106.49010433 -295.39229692 100.74472644 -294 95 C-281.19155037 95.58470366 -268.40634629 96.33373918 -255.62109375 97.30224609 C-252.94562289 97.50410259 -250.26972244 97.6994486 -247.59375 97.89453125 C-245.87497115 98.02305226 -244.15621995 98.15194374 -242.4375 98.28125 C-241.64593506 98.338573 -240.85437012 98.395896 -240.03881836 98.45495605 C-236.58784366 98.72109855 -233.33899342 99.09666279 -230 100 C-229.65775391 98.82244141 -229.65775391 98.82244141 -229.30859375 97.62109375 C-227.6001258 92.89348244 -225.34871755 88.53346636 -223.0625 84.0625 C-218.45679214 74.9620652 -213.99448057 65.80252762 -209.61743164 56.59008789 C-209.1868042 55.68379639 -208.75617676 54.77750488 -208.3125 53.84375 C-207.93738281 53.05162109 -207.56226563 52.25949219 -207.17578125 51.44335938 C-205.81400711 48.61349318 -204.41012974 45.80603627 -203 43 C-194.14291605 45.1065497 -185.37170958 47.42029651 -176.64453125 50.015625 C-175.76038544 50.27839233 -174.87623962 50.54115967 -173.96530151 50.81188965 C-170.31376047 51.90033572 -166.66368839 52.9935365 -163.01538086 54.09277344 C-160.31015921 54.9063097 -157.60255658 55.71147924 -154.89453125 56.515625 C-154.0737056 56.76556213 -153.25287994 57.01549927 -152.40718079 57.27301025 C-146.80121282 59.00388658 -146.80121282 59.00388658 -141 59 C-139.01531618 56.96653746 -137.45541097 55.09678673 -135.8125 52.8125 C-135.33401611 52.17538086 -134.85553223 51.53826172 -134.36254883 50.88183594 C-133.37256077 49.562723 -132.38877779 48.23893125 -131.41113281 46.91064453 C-129.37786408 44.15764088 -127.28224227 41.45657294 -125.1875 38.75 C-124.38699219 37.70585938 -123.58648437 36.66171875 -122.76171875 35.5859375 C-120.63000341 32.81127317 -118.48322703 30.04864938 -116.33203125 27.2890625 C-115.69821533 26.47598633 -115.06439941 25.66291016 -114.41137695 24.82519531 C-113.15689758 23.21707742 -111.90155464 21.60963273 -110.64526367 20.00292969 C-110.07138916 19.26719727 -109.49751465 18.53146484 -108.90625 17.7734375 C-108.39384766 17.11778809 -107.88144531 16.46213867 -107.35351562 15.78662109 C-106.17709844 14.23376738 -105.08064255 12.62096383 -104 11 C-100.48461238 11.57185178 -97.78576107 12.45659354 -94.68359375 14.1953125 C-93.85005371 14.65719971 -93.01651367 15.11908691 -92.15771484 15.5949707 C-91.26004395 16.09988037 -90.36237305 16.60479004 -89.4375 17.125 C-87.48085326 18.20512392 -85.52380089 19.28451327 -83.56640625 20.36328125 C-80.7692695 21.91199543 -77.97229499 23.46100013 -75.17596436 25.01116943 C-71.37504251 27.11645678 -67.56732857 29.20862119 -63.75125122 31.28631592 C-62.50298436 31.96903451 -61.25724915 32.65640295 -60.01412964 33.34844971 C-58.26300101 34.32292604 -56.50275403 35.28096152 -54.7421875 36.23828125 C-53.22407471 37.074198 -53.22407471 37.074198 -51.67529297 37.92700195 C-49.13317308 39.18715892 -49.13317308 39.18715892 -46.78295898 38.77319336 C-44.20643918 37.65586648 -42.33517711 36.05787566 -40.1875 34.25 C-39.22199219 33.44046875 -38.25648438 32.6309375 -37.26171875 31.796875 C-33.00665917 28.16204444 -28.78314247 24.49047622 -24.56494141 20.81298828 C-19.93423405 16.78284241 -15.22385121 12.87543564 -10.453125 9.01171875 C-6.89354965 6.09264024 -3.43651767 3.06234096 0 0 Z " fill="#9180E5" transform="translate(501,4)"/>
</svg>
